<svg xmlns="http://www.w3.org/2000/svg" viewBox="0 0 120 120" width="120" height="120">
  <defs>
    <radialGradient id="limb-5" cx="38%" cy="34%" r="75%">
      <stop offset="0%" stop-color="#ffffff" stop-opacity="0.22"/>
      <stop offset="55%" stop-color="#ffffff" stop-opacity="0"/>
      <stop offset="100%" stop-color="#000000" stop-opacity="0.55"/>
    </radialGradient>
    <clipPath id="disc-5"><circle cx="60" cy="60" r="48"/></clipPath><radialGradient id="oce5" cx="40%" cy="36%" r="78%"><stop offset="0%" stop-color="#2f7fcf"/><stop offset="100%" stop-color="#0a2f63"/></radialGradient></defs>
  
  <g clip-path="url(#disc-5)">
    <circle cx="60" cy="60" r="48" fill="url(#oce5)"/>
    <ellipse cx="60.1" cy="79.5" rx="8.5" ry="8.9" fill="#4f9be0" opacity="0.5"/><ellipse cx="45.4" cy="74.2" rx="9.4" ry="9.8" fill="#4f9be0" opacity="0.5"/><ellipse cx="52.7" cy="84.8" rx="10.6" ry="8.2" fill="#4f9be0" opacity="0.5"/><ellipse cx="72.0" cy="43.6" rx="9.2" ry="9.7" fill="#4f9be0" opacity="0.5"/><ellipse cx="62.5" cy="26.3" rx="7.4" ry="7.8" fill="#4f9be0" opacity="0.5"/><ellipse cx="53.8" cy="71.1" rx="9.1" ry="8.3" fill="#4f9be0" opacity="0.5"/><ellipse cx="86.0" cy="37.5" rx="10.6" ry="11.2" fill="#4f9be0" opacity="0.5"/><ellipse cx="57.6" cy="79.0" rx="4.4" ry="4.6" fill="#ffffff" opacity="0.16"/><ellipse cx="83.8" cy="65.0" rx="5.4" ry="3.9" fill="#ffffff" opacity="0.16"/><ellipse cx="55.4" cy="89.5" rx="7.6" ry="4.6" fill="#ffffff" opacity="0.16"/><ellipse cx="33.4" cy="45.9" rx="4.5" ry="3.9" fill="#ffffff" opacity="0.16"/><ellipse cx="71.9" cy="87.7" rx="7.3" ry="6.9" fill="#ffffff" opacity="0.16"/><ellipse cx="54.6" cy="68.4" rx="5.9" ry="5.2" fill="#ffffff" opacity="0.16"/><ellipse cx="60" cy="102" rx="15" ry="4" fill="#eaf6ff" opacity="0.8"/>
    <circle cx="60" cy="60" r="48" fill="url(#limb-5)"/>
  </g>
  <circle cx="60" cy="60" r="48" fill="none" stroke="#bfe0ff" stroke-opacity="0.35" stroke-width="1.5"/>
</svg>