<svg xmlns="http://www.w3.org/2000/svg" viewBox="0 0 120 120" width="120" height="120">
  <defs>
    <radialGradient id="limb-2" cx="38%" cy="34%" r="75%">
      <stop offset="0%" stop-color="#ffffff" stop-opacity="0.22"/>
      <stop offset="55%" stop-color="#ffffff" stop-opacity="0"/>
      <stop offset="100%" stop-color="#000000" stop-opacity="0.55"/>
    </radialGradient>
    <clipPath id="disc-2"><circle cx="60" cy="60" r="48"/></clipPath><radialGradient id="ice2" cx="40%" cy="36%" r="78%"><stop offset="0%" stop-color="#eaffff"/><stop offset="100%" stop-color="#9fc4d8"/></radialGradient></defs>
  
  <g clip-path="url(#disc-2)">
    <circle cx="60" cy="60" r="48" fill="url(#ice2)"/>
    <ellipse cx="62.5" cy="95.7" rx="9.7" ry="10.3" fill="#cfe9f5" opacity="0.6"/><ellipse cx="93.0" cy="70.6" rx="8.2" ry="5.1" fill="#cfe9f5" opacity="0.6"/><ellipse cx="93.7" cy="75.6" rx="11.8" ry="10.2" fill="#cfe9f5" opacity="0.6"/><ellipse cx="33.5" cy="68.3" rx="9.6" ry="9.5" fill="#cfe9f5" opacity="0.6"/><ellipse cx="64.5" cy="36.2" rx="8.8" ry="9.1" fill="#cfe9f5" opacity="0.6"/><ellipse cx="43.1" cy="79.8" rx="6.6" ry="6.4" fill="#cfe9f5" opacity="0.6"/><ellipse cx="71.3" cy="40.7" rx="7.1" ry="7.7" fill="#cfe9f5" opacity="0.6"/><path d="M30 54 L54 64 L78 52 L94 66" stroke="#7fa9bd" stroke-width="1.4" fill="none" opacity="0.7"/><path d="M36 76 L60 80 L86 72" stroke="#7fa9bd" stroke-width="1.2" fill="none" opacity="0.6"/>
    <circle cx="60" cy="60" r="48" fill="url(#limb-2)"/>
  </g>
  <circle cx="60" cy="60" r="48" fill="none" stroke="#dff6ff" stroke-opacity="0.35" stroke-width="1.5"/>
</svg>