<svg xmlns="http://www.w3.org/2000/svg" viewBox="0 0 120 120" width="120" height="120">
  <defs>
    <radialGradient id="limb-0" cx="38%" cy="34%" r="75%">
      <stop offset="0%" stop-color="#ffffff" stop-opacity="0.22"/>
      <stop offset="55%" stop-color="#ffffff" stop-opacity="0"/>
      <stop offset="100%" stop-color="#000000" stop-opacity="0.55"/>
    </radialGradient>
    <clipPath id="disc-0"><circle cx="60" cy="60" r="48"/></clipPath><radialGradient id="ocn0" cx="40%" cy="36%" r="75%"><stop offset="0%" stop-color="#3aa0e0"/><stop offset="100%" stop-color="#0d4f86"/></radialGradient></defs>
  
  <g clip-path="url(#disc-0)">
    <circle cx="60" cy="60" r="48" fill="url(#ocn0)"/>
    <ellipse cx="61.2" cy="79.6" rx="8.5" ry="5.4" fill="#3f9e54" opacity="0.85"/><ellipse cx="52.5" cy="26.4" rx="6.6" ry="6.3" fill="#3f9e54" opacity="0.85"/><ellipse cx="73.8" cy="70.5" rx="11.5" ry="8.5" fill="#3f9e54" opacity="0.85"/><ellipse cx="45.9" cy="77.3" rx="9.6" ry="8.9" fill="#3f9e54" opacity="0.85"/><ellipse cx="39.8" cy="76.2" rx="10.7" ry="8.5" fill="#3f9e54" opacity="0.85"/><ellipse cx="82.4" cy="82.9" rx="11.4" ry="7.1" fill="#3f9e54" opacity="0.85"/><ellipse cx="55.6" cy="72.5" rx="10.0" ry="6.3" fill="#3f9e54" opacity="0.85"/><ellipse cx="36.8" cy="87.5" rx="11.6" ry="11.2" fill="#3f9e54" opacity="0.85"/><ellipse cx="68.0" cy="58.3" rx="8.5" ry="8.4" fill="#3f9e54" opacity="0.85"/><ellipse cx="60.7" cy="82.6" rx="6.3" ry="5.4" fill="#2f7d42" opacity="0.7"/><ellipse cx="52.2" cy="27.0" rx="5.0" ry="4.8" fill="#2f7d42" opacity="0.7"/><ellipse cx="69.2" cy="94.4" rx="4.9" ry="4.2" fill="#2f7d42" opacity="0.7"/><ellipse cx="88.8" cy="76.2" rx="5.0" ry="3.6" fill="#2f7d42" opacity="0.7"/><ellipse cx="63.8" cy="90.2" rx="5.0" ry="3.1" fill="#2f7d42" opacity="0.7"/><ellipse cx="37.1" cy="72.6" rx="7.3" ry="7.6" fill="#2f7d42" opacity="0.7"/><ellipse cx="60" cy="19" rx="20" ry="6" fill="#eaf6ff" opacity="0.85"/><ellipse cx="60" cy="102" rx="16" ry="5" fill="#eaf6ff" opacity="0.85"/><ellipse cx="57.1" cy="78.8" rx="8.0" ry="6.2" fill="#ffffff" opacity="0.18"/><ellipse cx="40.2" cy="82.7" rx="5.1" ry="3.9" fill="#ffffff" opacity="0.18"/><ellipse cx="73.3" cy="45.9" rx="8.6" ry="7.4" fill="#ffffff" opacity="0.18"/><ellipse cx="54.4" cy="71.4" rx="8.1" ry="7.5" fill="#ffffff" opacity="0.18"/><ellipse cx="83.2" cy="35.3" rx="9.7" ry="8.0" fill="#ffffff" opacity="0.18"/>
    <circle cx="60" cy="60" r="48" fill="url(#limb-0)"/>
  </g>
  <circle cx="60" cy="60" r="48" fill="none" stroke="#9fd0ff" stroke-opacity="0.35" stroke-width="1.5"/>
</svg>